<mxfile host="app.diagrams.net" agent="Mozilla/5.0 (Macintosh; Intel Mac OS X 10_15_7) AppleWebKit/537.36 (KHTML, like Gecko) Chrome/135.0.0.0 Safari/537.36" version="26.2.14">
  <diagram name="Page-1" id="AULaulgrxal9m6uOelad">
    <mxGraphModel dx="1220" dy="788" grid="1" gridSize="10" guides="1" tooltips="1" connect="1" arrows="1" fold="1" page="1" pageScale="1" pageWidth="1920" pageHeight="1080" math="0" shadow="0">
      <root>
        <mxCell id="0" />
        <mxCell id="1" value="A01" parent="0" />
        <mxCell id="q6VZNPp-Z9NHDblB5Jxc-18" value="" style="edgeStyle=orthogonalEdgeStyle;rounded=0;orthogonalLoop=1;jettySize=auto;html=1;strokeWidth=5;dashed=1;dashPattern=1 2;" edge="1" parent="1" source="q6VZNPp-Z9NHDblB5Jxc-1" target="q6VZNPp-Z9NHDblB5Jxc-2">
          <mxGeometry relative="1" as="geometry" />
        </mxCell>
        <mxCell id="q6VZNPp-Z9NHDblB5Jxc-1" value="Prepare" style="rounded=1;whiteSpace=wrap;html=1;fillColor=none;fontFamily=Noto Sans;fontSize=48;fontSource=https%3A%2F%2Ffonts.googleapis.com%2Fcss%3Ffamily%3DNoto%2BSans;fontStyle=1;strokeWidth=3;" vertex="1" parent="1">
          <mxGeometry x="40" y="440" width="360" height="120" as="geometry" />
        </mxCell>
        <mxCell id="q6VZNPp-Z9NHDblB5Jxc-19" value="" style="edgeStyle=orthogonalEdgeStyle;rounded=0;orthogonalLoop=1;jettySize=auto;html=1;strokeWidth=5;dashed=1;dashPattern=1 2;entryX=0;entryY=0.5;entryDx=0;entryDy=0;" edge="1" parent="1" source="q6VZNPp-Z9NHDblB5Jxc-2" target="q6VZNPp-Z9NHDblB5Jxc-3">
          <mxGeometry relative="1" as="geometry">
            <mxPoint x="1000" y="500" as="targetPoint" />
          </mxGeometry>
        </mxCell>
        <mxCell id="q6VZNPp-Z9NHDblB5Jxc-2" value="Stage 1" style="rounded=1;whiteSpace=wrap;html=1;fillColor=none;fontFamily=Noto Sans;fontSize=48;fontSource=https%3A%2F%2Ffonts.googleapis.com%2Fcss%3Ffamily%3DNoto%2BSans;fontStyle=1;strokeWidth=3;" vertex="1" parent="1">
          <mxGeometry x="480" y="440" width="440" height="120" as="geometry" />
        </mxCell>
        <mxCell id="q6VZNPp-Z9NHDblB5Jxc-3" value="Stage 2" style="rounded=1;whiteSpace=wrap;html=1;fillColor=none;fontFamily=Noto Sans;fontSize=48;fontSource=https%3A%2F%2Ffonts.googleapis.com%2Fcss%3Ffamily%3DNoto%2BSans;fontStyle=1;strokeWidth=3;" vertex="1" parent="1">
          <mxGeometry x="1000" y="440" width="440" height="120" as="geometry" />
        </mxCell>
        <mxCell id="q6VZNPp-Z9NHDblB5Jxc-4" value="End" style="rounded=1;whiteSpace=wrap;html=1;fillColor=none;fontFamily=Noto Sans;fontSize=48;fontSource=https%3A%2F%2Ffonts.googleapis.com%2Fcss%3Ffamily%3DNoto%2BSans;fontStyle=1;strokeWidth=3;" vertex="1" parent="1">
          <mxGeometry x="1520" y="440" width="360" height="120" as="geometry" />
        </mxCell>
        <mxCell id="q6VZNPp-Z9NHDblB5Jxc-20" value="" style="edgeStyle=orthogonalEdgeStyle;rounded=0;orthogonalLoop=1;jettySize=auto;html=1;strokeWidth=5;dashed=1;dashPattern=1 2;exitX=1;exitY=0.5;exitDx=0;exitDy=0;" edge="1" parent="1" source="q6VZNPp-Z9NHDblB5Jxc-3" target="q6VZNPp-Z9NHDblB5Jxc-4">
          <mxGeometry relative="1" as="geometry">
            <mxPoint x="1520.0000000000005" y="500" as="sourcePoint" />
          </mxGeometry>
        </mxCell>
        <mxCell id="q6VZNPp-Z9NHDblB5Jxc-21" value="A02" parent="0" />
        <mxCell id="q6VZNPp-Z9NHDblB5Jxc-23" value="Prepare" style="rounded=1;whiteSpace=wrap;html=1;fillColor=light-dark(#FFFFFF,#FFFFFF);fontFamily=Noto Sans;fontSize=48;fontSource=https%3A%2F%2Ffonts.googleapis.com%2Fcss%3Ffamily%3DNoto%2BSans;fontStyle=1;arcSize=5;verticalAlign=top;strokeWidth=3;strokeColor=none;opacity=18;movable=0;resizable=0;rotatable=0;deletable=0;editable=0;locked=1;connectable=0;" vertex="1" parent="q6VZNPp-Z9NHDblB5Jxc-21">
          <mxGeometry x="40" y="1240" width="360" height="680" as="geometry" />
        </mxCell>
        <mxCell id="q6VZNPp-Z9NHDblB5Jxc-25" value="Stage 1" style="rounded=1;whiteSpace=wrap;html=1;fillColor=light-dark(#FFFFFF,#FFFFFF);fontFamily=Noto Sans;fontSize=48;fontSource=https%3A%2F%2Ffonts.googleapis.com%2Fcss%3Ffamily%3DNoto%2BSans;fontStyle=1;arcSize=5;verticalAlign=top;strokeWidth=3;strokeColor=none;opacity=18;movable=0;resizable=0;rotatable=0;deletable=0;editable=0;locked=1;connectable=0;" vertex="1" parent="q6VZNPp-Z9NHDblB5Jxc-21">
          <mxGeometry x="480" y="1240" width="440" height="680" as="geometry" />
        </mxCell>
        <mxCell id="q6VZNPp-Z9NHDblB5Jxc-26" value="Stage 2" style="rounded=1;whiteSpace=wrap;html=1;fillColor=light-dark(#FFFFFF,#FFFFFF);fontFamily=Noto Sans;fontSize=48;fontSource=https%3A%2F%2Ffonts.googleapis.com%2Fcss%3Ffamily%3DNoto%2BSans;fontStyle=1;arcSize=5;verticalAlign=top;strokeWidth=3;strokeColor=none;opacity=18;movable=0;resizable=0;rotatable=0;deletable=0;editable=0;locked=1;connectable=0;" vertex="1" parent="q6VZNPp-Z9NHDblB5Jxc-21">
          <mxGeometry x="1000" y="1240" width="440" height="680" as="geometry" />
        </mxCell>
        <mxCell id="q6VZNPp-Z9NHDblB5Jxc-27" value="End" style="rounded=1;whiteSpace=wrap;html=1;fillColor=light-dark(#FFFFFF,#FFFFFF);fontFamily=Noto Sans;fontSize=48;fontSource=https%3A%2F%2Ffonts.googleapis.com%2Fcss%3Ffamily%3DNoto%2BSans;fontStyle=1;arcSize=5;verticalAlign=top;strokeWidth=3;strokeColor=none;opacity=18;movable=0;resizable=0;rotatable=0;deletable=0;editable=0;locked=1;connectable=0;" vertex="1" parent="q6VZNPp-Z9NHDblB5Jxc-21">
          <mxGeometry x="1520" y="1240" width="360" height="680" as="geometry" />
        </mxCell>
      </root>
    </mxGraphModel>
  </diagram>
</mxfile>
